<svg xmlns="http://www.w3.org/2000/svg" id="a" style="fill: #126e62" viewBox="-0.01 233.83 1366.01 415.16" preserveAspectRatio="none"><path d="M1169.58,233.84c5.84,37.43,6.34,74.76-2.45,111.85-17.57,74.2-62.65,128.5-124.45,170.23-60.29,40.71-127.6,64.39-198.1,80.3-66.27,14.95-133.49,22.18-201.21,23.4-34.85,.62-69.9-1.79-104.64-5.11-55.09-5.26-110.21-10.98-164.91-19.24-50.61-7.64-100.94-17.73-150.92-28.85-49.61-11.04-98.68-24.5-147.88-37.32-21.89-5.71-43.5-12.49-65.26-18.7-3.19-.91-6.51-1.36-9.77-2.03v140.62H1366c0-138.39,0-276.77,0-415.16-65.47,0-130.95,0-196.42,0Z"/></svg>